<?xml version="1.0" standalone="no"?>
<!DOCTYPE svg PUBLIC "-//W3C//DTD SVG 20010904//EN"
 "http://www.w3.org/TR/2001/REC-SVG-20010904/DTD/svg10.dtd">
<svg version="1.0" xmlns="http://www.w3.org/2000/svg"
 width="117.000000pt" height="117.000000pt" viewBox="0 0 117.000000 117.000000"
 preserveAspectRatio="xMidYMid meet">
<metadata>
Created by potrace 1.11, written by Peter Selinger 2001-2013
</metadata>
<g transform="translate(0.000000,117.000000) scale(0.100000,-0.100000)"
fill="#000000" stroke="none">
<path d="M640 1078 c-46 -8 -140 -65 -140 -84 0 -6 -6 -17 -14 -23 -34 -29
-48 -159 -27 -249 7 -29 11 -55 9 -57 -2 -2 -24 -6 -48 -8 -167 -16 -330 -168
-330 -307 1 -76 46 -152 111 -186 49 -25 111 -45 103 -33 -4 8 -1 8 13 1 23
-13 208 -5 208 8 0 1 11 3 25 6 39 7 168 71 211 105 38 30 64 32 94 9 6 -4 27
-10 48 -13 35 -5 43 -1 77 33 52 52 80 143 85 270 3 89 -13 213 -32 244 -4 6
-8 17 -9 25 -7 44 -150 211 -181 211 -7 0 -13 4 -13 9 0 10 -74 36 -120 43
-14 2 -45 0 -70 -4z"/>
</g>
</svg>
